<svg width="329" height="327" viewBox="0 0 329 327" fill="none" xmlns="http://www.w3.org/2000/svg">
<path d="M208.78 239.629C214.622 241.818 219.631 242.221 226.842 244.406C234.076 246.501 235.031 247.446 243.544 248.914C252.046 250.335 260.651 251.237 264.493 250.995C268.337 250.75 268.732 251.571 274.197 251.077C279.622 250.507 282.951 250.148 287.656 249.573C292.442 249.181 306.766 245.414 311.611 243.075C316.579 240.92 322.35 238.974 325.717 237.521C326.777 237.066 327.628 236.716 328.289 236.457C328.569 236.348 328.716 236.331 328.738 236.376C328.738 236.376 328.738 236.376 328.738 236.376C328.765 236.431 328.598 236.581 328.254 236.756C326.576 237.613 324.174 238.863 321.303 240.363C315.856 243.128 315.106 243.02 307.477 245.905C299.817 248.63 295.072 250.422 285.515 251.778C275.957 252.813 273.746 254.465 260.057 253.42C246.536 251.768 244.923 252.606 231.595 249.744C218.294 246.661 202.428 240.3 194.697 237.875C186.965 235.405 176.57 232.199 165.457 229.56C163.233 229.032 160.947 228.553 158.522 228.111C148.677 226.318 137.709 224.687 127.652 222.994C115.175 220.817 97.3285 218.552 89.0733 217.864C80.8148 217.136 78.7823 217.008 70.8062 217.103C69.1233 217.132 67.2085 217.158 65.2058 217.166C61.7009 217.181 57.9298 217.12 54.5392 216.984C51.8577 216.899 52.446 216.649 55.1581 216.493C59.1256 216.275 62.3647 216.342 64.4065 216.043C64.6718 216.004 64.9331 215.966 65.1909 215.93C68.7306 215.425 70.5625 215.228 75.3979 215.597C80.5572 216.014 83.0009 215.423 86.0149 215.663C89.0268 215.966 88.9682 216.157 104.224 217.305C119.487 218.594 127.749 219.848 133.503 220.623C138.994 221.376 149.954 223.521 159.07 225.12C159.533 225.201 159.99 225.281 160.44 225.36C169.86 226.8 188.313 232.441 195.681 234.737C203.089 236.949 202.948 237.427 208.78 239.629Z" fill="#96031A"/>
<path d="M205.822 231.483C211.71 233.384 216.538 234.229 223.778 236.258C231.035 238.22 232.051 238.846 240.509 240.473C248.966 242.069 257.532 243.064 261.362 243.095C265.196 243.125 265.583 243.573 271.025 243.392C276.478 243.133 279.732 242.874 284.479 242.346C289.249 242.037 303.521 238.578 308.418 236.389C313.364 234.458 319.069 232.209 322.328 230.674C323.362 230.193 324.186 229.808 324.822 229.516C325.092 229.392 325.226 229.352 325.237 229.374C325.237 229.374 325.237 229.374 325.237 229.374C325.251 229.401 325.075 229.526 324.737 229.702C323.077 230.565 320.733 231.778 317.804 233.205C312.385 235.756 311.719 235.881 304.061 238.555C296.361 241.04 291.629 242.453 282.14 243.57C272.656 244.36 270.412 245.279 256.962 244.083C243.61 242.358 242.116 242.564 229.005 239.639C215.929 236.535 199.931 231.042 192.193 228.833C184.456 226.582 174.048 223.648 162.898 221.293C161.52 221.002 160.094 220.719 158.628 220.448C148.218 218.518 136.218 216.734 125.268 215.261C112.794 213.47 95.01 212.111 86.777 212.002C78.5577 211.816 76.547 211.902 68.6141 212.226C67.6836 212.262 66.6306 212.296 65.5762 212.31C61.5425 212.409 56.5854 212.574 52.8709 214.542C51.7239 215.205 51.5001 215.732 51.5295 215.564C51.561 215.396 52.0824 214.672 53.2962 214.026C56.894 212.244 60.2667 212.2 62.2529 211.87C63.5217 211.698 64.5569 211.599 65.5668 211.536C67.6897 211.401 69.6388 211.307 73.1187 211.307C78.2268 211.31 80.653 210.933 83.632 210.973C86.6255 211.089 86.5831 211 101.726 211.657C116.855 212.503 125.146 213.673 130.822 214.361C136.504 215.064 148.336 217.07 157.551 218.697C157.98 218.772 158.432 218.851 158.905 218.935C168.565 220.499 185.596 225.207 192.618 227.244C199.996 229.324 199.937 229.574 205.822 231.483Z" fill="#96031A"/>
<path d="M201.848 221.807C207.617 223.592 212.249 224.694 219.303 226.763C226.365 228.794 227.381 229.277 235.563 231.251C243.744 233.213 252.026 234.695 255.765 235.072C259.489 235.446 259.847 235.731 265.17 236.014C270.482 236.218 273.703 236.185 278.343 235.894C283.026 235.913 297.059 232.784 301.699 230.324C306.466 228.277 311.682 225.384 314.619 223.4C315.542 222.787 316.27 222.286 316.829 221.898C317.066 221.733 317.181 221.664 317.189 221.674C317.189 221.674 317.189 221.674 317.189 221.674C317.198 221.686 317.04 221.822 316.74 222.04C315.276 223.108 313.158 224.601 310.45 226.252C305.401 229.163 304.806 229.506 297.433 232.305C289.961 234.817 285.249 235.94 275.967 236.512C266.694 236.721 264.478 237.078 251.496 235.114C238.617 232.722 237.208 232.555 224.58 229.27C211.972 225.846 196.298 220.77 188.719 218.691C181.153 216.568 170.949 213.83 160.014 211.759C159.852 211.728 159.69 211.698 159.528 211.667C148.624 209.621 135.243 207.696 123.208 206.49C110.954 205.114 93.6025 204.668 85.5571 205.051C77.5101 205.323 75.5897 205.6 67.855 206.066C67.1689 206.1 66.4311 206.128 65.6933 206.138C61.6166 206.238 56.2899 206.535 52.7259 209.176C51.7192 209.992 51.5664 210.539 51.6004 210.373C51.6394 210.233 52.0485 209.478 53.1386 208.713C56.4134 206.58 59.7341 206.396 61.6597 206.071C63.2342 205.859 64.4603 205.775 65.6885 205.733C67.4812 205.672 69.2565 205.573 72.2454 205.415C77.2215 205.144 79.543 204.812 82.4508 204.685C85.3597 204.639 85.3108 204.409 100.089 204.446C114.867 204.706 122.953 205.681 128.508 206.23C134.086 206.796 145.63 208.455 154.656 210.016C156.088 210.258 157.78 210.553 159.669 210.896C169.291 212.568 182.875 216.195 188.903 217.889C196.105 219.891 196.083 220.029 201.848 221.807Z" fill="#96031A"/>
<path d="M157.85 305.076C148.513 304.864 139.205 303.559 130.213 301.109C113.498 296.589 97.9461 287.957 85.4363 276.069C85.2379 275.881 85.0401 275.692 84.843 275.503C64.7356 256.402 53.6468 228.929 52.7847 201.378C51.3722 163.19 67.7308 125.507 94.1178 98.2198C122.28 68.695 163.074 50.3536 203.984 53.1748C228.543 54.7597 252.644 64.674 270.314 81.8264C283.497 94.3035 292.941 110.564 296.808 128.279C298.85 137.267 299.669 146.509 299.701 155.767C299.702 156.165 299.862 156.545 300.144 156.825C300.427 157.105 300.81 157.261 301.209 157.259C301.607 157.257 301.989 157.097 302.269 156.814C302.548 156.531 302.704 156.149 302.701 155.751C302.701 155.751 302.701 155.751 302.701 155.751C302.632 146.323 301.764 136.868 299.63 127.633C295.596 109.426 285.729 92.5993 272.176 79.8825C253.971 62.3369 229.206 52.2821 204.146 50.7602C162.391 48.0435 121.101 66.8657 92.6959 96.8581C66.0833 124.586 49.6744 162.78 51.2556 201.437C52.2351 229.325 63.5932 257.126 84.0198 276.362C84.2201 276.553 84.4209 276.743 84.6224 276.932C97.3338 288.913 113.229 297.351 130.09 301.576C139.166 303.871 148.511 305.002 157.85 305.076Z" fill="#FAA916"/>
<path d="M168.309 211.711C159.435 211.711 152.096 210.474 146.293 207.999C140.576 205.525 136.309 202.282 133.493 198.271C130.763 194.261 129.397 189.994 129.397 185.471C129.397 180.351 130.72 175.701 133.365 171.519C136.011 167.338 139.467 163.711 143.733 160.639C148.085 157.567 152.864 155.135 158.069 153.343C163.275 151.551 168.395 150.527 173.429 150.271C168.992 148.65 165.365 146.431 162.549 143.615C159.819 140.714 158.453 137.557 158.453 134.143C158.453 130.645 159.52 127.317 161.653 124.159C163.872 120.917 166.816 117.973 170.485 115.327C174.155 112.597 178.293 110.25 182.901 108.287C187.595 106.325 192.459 104.831 197.493 103.807C202.528 102.698 207.392 102.143 212.085 102.143C219.68 102.143 225.739 103.423 230.261 105.983C234.784 108.543 237.045 111.829 237.045 115.839C237.045 119.509 235.04 123.135 231.029 126.719C227.104 130.303 221.643 132.863 214.645 134.399C213.28 134.655 212.384 134.783 211.957 134.783C211.019 134.783 210.549 134.399 210.549 133.631C210.549 133.375 210.677 133.205 210.933 133.119C211.275 132.949 211.957 132.693 212.981 132.351C218.016 130.645 222.027 128.255 225.013 125.183C228 122.026 229.493 118.698 229.493 115.199C229.493 112.213 228.043 109.823 225.141 108.031C222.325 106.154 218.059 105.215 212.341 105.215C207.221 105.215 202.059 105.941 196.853 107.391C191.648 108.842 186.869 110.89 182.517 113.535C178.165 116.181 174.667 119.21 172.021 122.623C169.376 126.037 168.053 129.749 168.053 133.759C168.053 136.661 168.907 139.007 170.613 140.799C172.32 142.591 174.496 144.042 177.141 145.151C179.787 146.175 182.517 147.029 185.333 147.711C188.235 148.309 190.88 148.991 193.269 149.759C194.123 150.015 194.677 150.357 194.933 150.783C195.189 151.21 195.317 151.637 195.317 152.063C195.317 153.173 194.677 154.111 193.397 154.879C192.203 155.647 190.496 156.031 188.277 156.031C186.912 156.031 185.376 156.031 183.669 156.031C182.048 155.946 180.299 155.903 178.421 155.903C175.776 155.903 172.96 156.031 169.973 156.287C167.072 156.543 163.872 157.226 160.373 158.335C155.936 159.701 152.053 161.834 148.725 164.735C145.483 167.637 142.965 170.837 141.173 174.335C139.381 177.834 138.485 181.29 138.485 184.703C138.485 189.141 139.509 193.151 141.557 196.735C143.605 200.319 146.848 203.135 151.285 205.183C155.723 207.317 161.568 208.383 168.821 208.383C175.477 208.383 181.92 207.53 188.149 205.823C194.379 204.117 200.139 201.941 205.429 199.295C210.72 196.565 215.243 193.749 218.997 190.847C222.069 188.373 224.544 185.855 226.421 183.295C228.384 180.735 229.365 178.517 229.365 176.639C229.365 174.25 227.701 172.799 224.373 172.287C223.52 172.202 223.093 171.946 223.093 171.519C223.093 170.837 223.691 170.495 224.885 170.495C227.36 170.495 229.536 171.349 231.413 173.055C233.376 174.677 234.357 176.725 234.357 179.199C234.357 184.063 230.901 189.183 223.989 194.559C219.808 197.887 214.688 200.831 208.629 203.391C202.656 205.951 196.171 207.957 189.173 209.407C182.261 210.943 175.307 211.711 168.309 211.711Z" fill="#96031A"/>
<circle cx="95.7441" cy="283.626" r="13.6499" fill="#FAA916"/>
<circle cx="113.798" cy="78.8738" r="7.6458" fill="#FAA916"/>
</svg>
