<svg width="506" height="18" viewBox="0 0 506 18" fill="none" xmlns="http://www.w3.org/2000/svg">
<path d="M2.80405 0.170998C2.31911 -0.0439367 1.76935 -0.056926 1.27522 0.13601C0.781123 0.32888 0.38313 0.711875 0.169289 1.19962C-0.0445521 1.68736 -0.0565832 2.23957 0.136334 2.73365C0.329223 3.22779 0.711259 3.62333 1.19791 3.83437C1.19791 3.83437 1.19791 3.83437 1.19791 3.83437C9.41493 6.99489 17.6724 8.80001 25.9695 10.4516C88.6982 21.54 152.387 17.9468 215.311 11.7101C303.414 2.63525 392.522 3.77798 480.531 13.959C488.854 14.9642 497.24 16.0555 505.522 17.3773C497.251 15.9896 488.872 14.832 480.555 13.7605C392.609 2.88234 303.444 1.02399 215.08 9.41966C152.26 15.1613 88.5784 18.1813 26.706 6.72364C18.6128 5.06102 10.2257 3.09504 2.80405 0.170998Z" fill="#96031A"/>
</svg>
